<svg xmlns="http://www.w3.org/2000/svg" viewBox="0 0 180 180" width="180" height="180">
  <defs>
    <linearGradient id="bgGradient" x1="0%" y1="0%" x2="100%" y2="100%">
      <stop offset="0%" style="stop-color:#4A90E2"/>
      <stop offset="100%" style="stop-color:#357ABD"/>
    </linearGradient>
    <linearGradient id="emailGrad" x1="0%" y1="0%" x2="100%" y2="100%">
      <stop offset="0%" style="stop-color:#FF6B35"/>
      <stop offset="100%" style="stop-color:#F7931E"/>
    </linearGradient>
  </defs>
  
  <!-- 圆角矩形背景 -->
  <rect x="0" y="0" width="180" height="180" rx="40" ry="40" fill="url(#bgGradient)"/>
  
  <!-- 云朵 -->
  <path d="M50 70c0-12 8-20 20-20 5-8 15-15 25-15s20 7 25 15c12 0 20 8 20 20 0 3-1 6-2 8H52c-1-2-2-5-2-8z" 
        fill="white" opacity="0.9"/>
  
  <!-- 邮件信封 -->
  <rect x="45" y="90" width="90" height="60" rx="6" ry="6" fill="url(#emailGrad)" stroke="#D63031" stroke-width="2"/>
  <path d="M45 100 L90 125 L135 100" stroke="white" stroke-width="4" fill="none" stroke-linecap="round"/>
  
  <!-- 路由线条 -->
  <path d="M20 120 Q35 105 50 120" stroke="#50C878" stroke-width="6" fill="none" stroke-linecap="round"/>
  <path d="M130 120 Q145 105 160 120" stroke="#50C878" stroke-width="6" fill="none" stroke-linecap="round"/>
  
  <!-- 路由节点 -->
  <circle cx="20" cy="120" r="6" fill="#50C878"/>
  <circle cx="160" cy="120" r="6" fill="#50C878"/>
  
  <!-- 装饰元素 -->
  <circle cx="70" cy="55" r="4" fill="white" opacity="0.8"/>
  <circle cx="95" cy="50" r="3" fill="white" opacity="0.6"/>
  <circle cx="110" cy="60" r="3.5" fill="white" opacity="0.7"/>
</svg>
