<svg xmlns="http://www.w3.org/2000/svg" viewBox="0 0 64 64" width="64" height="64">
  <defs>
    <linearGradient id="cloudGradient" x1="0%" y1="0%" x2="100%" y2="100%">
      <stop offset="0%" style="stop-color:#4A90E2;stop-opacity:1" />
      <stop offset="100%" style="stop-color:#357ABD;stop-opacity:1" />
    </linearGradient>
    <linearGradient id="emailGradient" x1="0%" y1="0%" x2="100%" y2="100%">
      <stop offset="0%" style="stop-color:#FF6B35;stop-opacity:1" />
      <stop offset="100%" style="stop-color:#F7931E;stop-opacity:1" />
    </linearGradient>
    <linearGradient id="routeGradient" x1="0%" y1="0%" x2="100%" y2="100%">
      <stop offset="0%" style="stop-color:#50C878;stop-opacity:1" />
      <stop offset="100%" style="stop-color:#228B22;stop-opacity:1" />
    </linearGradient>
  </defs>
  
  <!-- 背景圆形 -->
  <circle cx="32" cy="32" r="30" fill="url(#cloudGradient)" stroke="#2C5282" stroke-width="2"/>
  
  <!-- 云朵形状 -->
  <path d="M20 25c0-3.5 2.5-6 6-6 1.5-3 4.5-5 8-5s6.5 2 8 5c3.5 0 6 2.5 6 6 0 1-.5 2-1 3H21c-.5-1-1-2-1-3z" 
        fill="white" opacity="0.9"/>
  
  <!-- 邮件信封 -->
  <rect x="18" y="32" width="28" height="20" rx="2" ry="2" fill="url(#emailGradient)" stroke="#D63031" stroke-width="1"/>
  <path d="M18 34 L32 44 L46 34" stroke="white" stroke-width="2" fill="none" stroke-linecap="round"/>
  
  <!-- 路由箭头 -->
  <path d="M12 42 Q16 38 20 42" stroke="url(#routeGradient)" stroke-width="3" fill="none" stroke-linecap="round"/>
  <path d="M44 42 Q48 38 52 42" stroke="url(#routeGradient)" stroke-width="3" fill="none" stroke-linecap="round"/>
  
  <!-- 路由点 -->
  <circle cx="12" cy="42" r="2" fill="url(#routeGradient)"/>
  <circle cx="52" cy="42" r="2" fill="url(#routeGradient)"/>
  
  <!-- 小装饰点 -->
  <circle cx="25" cy="20" r="1.5" fill="white" opacity="0.8"/>
  <circle cx="35" cy="18" r="1" fill="white" opacity="0.6"/>
  <circle cx="40" cy="22" r="1.2" fill="white" opacity="0.7"/>
</svg>
