<svg xmlns="http://www.w3.org/2000/svg" viewBox="0 0 32 32" width="32" height="32">
  <defs>
    <linearGradient id="bg" x1="0%" y1="0%" x2="100%" y2="100%">
      <stop offset="0%" style="stop-color:#4A90E2"/>
      <stop offset="100%" style="stop-color:#357ABD"/>
    </linearGradient>
  </defs>
  
  <!-- 背景 -->
  <circle cx="16" cy="16" r="15" fill="url(#bg)"/>
  
  <!-- 简化的云朵 -->
  <path d="M8 12c0-2 1.5-3.5 3.5-3.5 1-1.5 2.5-2.5 4.5-2.5s3.5 1 4.5 2.5c2 0 3.5 1.5 3.5 3.5 0 0.5-0.2 1-0.5 1.5H8.5c-0.3-0.5-0.5-1-0.5-1.5z" 
        fill="white" opacity="0.9"/>
  
  <!-- 邮件信封 -->
  <rect x="6" y="16" width="20" height="12" rx="1" fill="#FF6B35"/>
  <path d="M6 18 L16 24 L26 18" stroke="white" stroke-width="1.5" fill="none"/>
  
  <!-- 路由箭头 -->
  <path d="M2 22 Q4 20 6 22" stroke="#50C878" stroke-width="2" fill="none"/>
  <path d="M26 22 Q28 20 30 22" stroke="#50C878" stroke-width="2" fill="none"/>
</svg>
